<svg width="177" height="179" viewBox="0 0 177 179" fill="none" xmlns="http://www.w3.org/2000/svg">
<path fill-rule="evenodd" clip-rule="evenodd" d="M137.717 140.211L176.425 179H64.9875V67.449L106.145 108.656C111.41 103.533 115.039 96.966 116.575 89.7832C118.111 82.6004 117.485 75.1235 114.776 68.2959C112.068 61.4682 107.398 55.5957 101.356 51.4193C95.3132 47.2428 88.1693 44.9495 80.825 44.8286C71.1465 44.9389 61.8967 48.8386 55.0606 55.6909C48.2245 62.5432 44.3468 71.8022 44.2594 81.4809V178.924H0.000112724V81.9147C-0.03564 60.3659 8.43464 39.6737 23.5701 24.3352C38.7056 8.99667 59.2831 0.251402 80.8304 0C96.9604 0.2612 112.657 5.26302 125.964 14.3822C139.271 23.5014 149.601 36.3348 155.666 51.2834C161.731 66.2319 163.263 82.6347 160.071 98.4479C156.88 114.261 149.106 128.785 137.717 140.211Z" fill="#6AE8FF"/>
</svg>
