<svg width="100" height="28" viewBox="0 0 100 28" fill="none" xmlns="http://www.w3.org/2000/svg">
<path fill-rule="evenodd" clip-rule="evenodd" d="M21.5254 21.9152L27.5754 27.9779H10.1576V10.5424L16.5907 16.983C17.4135 16.1823 17.9807 15.1559 18.2208 14.0332C18.4608 12.9105 18.363 11.7419 17.9397 10.6747C17.5163 9.60756 16.7864 8.68968 15.842 8.03689C14.8976 7.38411 13.781 7.02566 12.633 7.00677C11.1203 7.024 9.67453 7.63353 8.60604 8.70455C7.53755 9.77558 6.93145 11.2228 6.9178 12.7356V27.966H1.76189e-05V12.8034C-0.00557057 9.43526 1.31834 6.20105 3.68404 3.80362C6.04973 1.40619 9.26601 0.0392944 12.6339 0C15.155 0.0408258 17.6084 0.822616 19.6883 2.24796C21.7683 3.6733 23.3828 5.67918 24.3308 8.01565C25.2787 10.3521 25.5182 12.9159 25.0194 15.3875C24.5205 17.8591 23.3054 20.1293 21.5254 21.9152Z" fill="#6AE8FF"/>
<path d="M36.227 10.6128L35.7448 13.3704C35.4365 13.2826 35.1192 13.2306 34.799 13.2153C34.5187 13.2007 34.239 13.2534 33.9832 13.369C33.7274 13.4846 33.503 13.6597 33.3287 13.8797C32.9127 14.4836 32.631 15.1696 32.5024 15.8916V21.4204H29.6465V10.7534H32.1083L32.3685 12.8255C32.5709 12.1468 32.9582 11.5379 33.4872 11.067C33.9456 10.663 34.5363 10.4414 35.1473 10.4441C35.5131 10.4521 35.8762 10.5088 36.227 10.6128Z" fill="white"/>
<path d="M45.4962 16.9593H38.8132C38.82 17.7166 39.0998 18.446 39.6013 19.0135C40.0864 19.436 40.7175 19.6519 41.3598 19.6152C41.7997 19.6182 42.2366 19.5433 42.6505 19.394C43.1139 19.2143 43.5534 18.978 43.9589 18.6906L45.1454 20.3008C44.0098 21.2451 42.5773 21.7583 41.1005 21.7499C40.3846 21.7954 39.6675 21.6839 38.9992 21.4232C38.331 21.1624 37.7278 20.7588 37.2318 20.2406C36.2837 19.0972 35.806 17.636 35.8954 16.1533C35.8786 15.1462 36.0741 14.1469 36.4691 13.2203C36.8197 12.3948 37.3993 11.687 38.1395 11.1805C39.0939 10.5934 40.2171 10.3417 41.3308 10.4653C42.4445 10.5889 43.4852 11.0806 44.2877 11.8627C45.1936 12.988 45.6499 14.4093 45.5682 15.8516C45.5666 15.9847 45.5352 16.3542 45.4962 16.9593ZM42.7174 15.0457C42.7174 13.2757 42.0796 12.3904 40.8038 12.3898C40.5381 12.378 40.2735 12.4315 40.0331 12.5455C39.7928 12.6596 39.584 12.8307 39.425 13.044C39.0364 13.6792 38.8311 14.4095 38.8318 15.1542H42.7183L42.7174 15.0457Z" fill="white"/>
<path d="M47.7764 21.1143C47.2582 20.5036 46.9983 19.7151 47.0518 18.916V6.28381L49.9145 5.94482V18.8397C49.9145 19.3194 50.1111 19.5609 50.4984 19.5609C50.6932 19.5661 50.8863 19.5239 51.0611 19.438L51.645 21.5211C51.0677 21.7691 50.4444 21.8919 49.8162 21.8812C49.4412 21.9055 49.0654 21.8496 48.7137 21.7174C48.362 21.5851 48.0425 21.3796 47.7764 21.1143Z" fill="white"/>
<path d="M60.7547 11.9364C61.713 13.1025 62.1955 14.5874 62.1056 16.094C62.126 17.1164 61.9157 18.1303 61.4903 19.0601C61.1127 19.8805 60.5009 20.5707 59.7318 21.044C58.9062 21.5274 57.962 21.771 57.0056 21.7474C56.3085 21.7849 55.6117 21.67 54.9636 21.4106C54.3155 21.1513 53.7318 20.7538 53.253 20.2457C52.2927 19.0826 51.8082 17.599 51.8971 16.0932C51.872 15.0718 52.0776 14.0579 52.4988 13.1271C52.8779 12.3078 53.4894 11.6179 54.2573 11.1432C55.0897 10.6582 56.0408 10.4147 57.0039 10.4398C57.7004 10.4009 58.3969 10.5147 59.0448 10.7733C59.6927 11.0318 60.2763 11.4288 60.7547 11.9364ZM55.3912 13.4279C54.9803 14.2536 54.7968 15.1739 54.8598 16.094C54.7968 17.0142 54.9803 17.9345 55.3912 18.7601C55.5669 19.0236 55.8048 19.2395 56.084 19.3889C56.3632 19.5383 56.675 19.6164 56.9916 19.6164C57.3082 19.6164 57.62 19.5383 57.8991 19.3889C58.1783 19.2395 58.4163 19.0236 58.592 18.7601C59.0031 17.9344 59.1876 17.0144 59.1268 16.094C59.1916 15.1746 59.0109 14.2545 58.603 13.4279C58.4416 13.1536 58.208 12.9288 57.9277 12.7781C57.6474 12.6273 57.3311 12.5563 57.0132 12.5729C56.6908 12.5554 56.3697 12.6257 56.084 12.7763C55.7984 12.9269 55.559 13.1521 55.3912 13.4279Z" fill="white"/>
<path d="M71.9691 19.382C72.1107 19.5944 72.3245 19.7483 72.5708 19.8151L71.9691 21.7074C71.428 21.682 70.9004 21.5302 70.4285 21.2642C70.0102 20.9976 69.6894 20.6028 69.5141 20.1388C69.1693 20.6651 68.6919 21.0911 68.1299 21.3738C67.5679 21.6565 66.9412 21.7859 66.3132 21.749C65.8522 21.773 65.3911 21.7042 64.9573 21.5465C64.5235 21.3888 64.1258 21.1456 63.7878 20.8312C63.475 20.5204 63.2305 20.1478 63.07 19.7372C62.9095 19.3265 62.8365 18.8869 62.8556 18.4464C62.8293 17.93 62.9317 17.4151 63.1536 16.9479C63.3755 16.4808 63.7099 16.0761 64.1268 15.7702C65.215 15.0886 66.4893 14.765 67.7708 14.8447H68.998V14.321C69.0255 14.0746 69.0003 13.8252 68.9239 13.5893C68.8474 13.3535 68.7216 13.1366 68.5547 12.9532C68.1214 12.6589 67.5991 12.5246 67.0776 12.5736C66.1162 12.6133 65.1669 12.8032 64.2641 13.1363L63.62 11.2227C64.874 10.7136 66.2132 10.4473 67.5666 10.438C68.711 10.3424 69.8503 10.6746 70.7641 11.3702C71.1243 11.7349 71.4023 12.1725 71.5794 12.6535C71.7566 13.1345 71.8288 13.6479 71.7912 14.1591V18.4642C71.7667 18.7806 71.8282 19.0977 71.9691 19.382ZM68.9895 18.4973V16.4769H68.0437C66.4985 16.4769 65.7271 17.0538 65.7293 18.2074C65.7051 18.6044 65.8306 18.996 66.081 19.3049C66.2122 19.4397 66.371 19.5445 66.5466 19.6119C66.7222 19.6794 66.9103 19.7079 67.098 19.6956C67.4938 19.6931 67.8811 19.5795 68.2155 19.3676C68.55 19.1558 68.8181 18.8542 68.9895 18.4973Z" fill="white"/>
<path d="M83.4416 6.28381V21.5609H80.9264L80.7645 20.2202C80.4454 20.7416 79.9953 21.1704 79.459 21.4637C78.9227 21.7571 78.3189 21.9048 77.7077 21.8923C77.1135 21.9187 76.5228 21.7889 75.9944 21.5157C75.4661 21.2426 75.0186 20.8356 74.6967 20.3355C73.9443 19.0549 73.5848 17.5814 73.6628 16.0982C73.6439 15.0724 73.8244 14.0527 74.1942 13.0957C74.5026 12.2854 75.0284 11.5758 75.7137 11.0448C76.3687 10.5515 77.1692 10.2903 77.9891 10.3024C78.4724 10.2981 78.9515 10.3916 79.3976 10.5775C79.8437 10.7633 80.2476 11.0376 80.5848 11.3838V5.94482L83.4416 6.28381ZM79.6603 19.3914C80.0322 19.1222 80.3467 18.7817 80.5857 18.3897V13.5168C80.3467 13.212 80.0575 12.9501 79.7306 12.7423C79.4266 12.569 79.0813 12.4812 78.7315 12.488C78.419 12.483 78.111 12.5627 77.8403 12.7188C77.5696 12.8749 77.3463 13.1015 77.1942 13.3745C76.7691 14.2222 76.5775 15.1679 76.6391 16.1143C76.5685 17.0686 76.739 18.0253 77.1348 18.8965C77.27 19.1508 77.473 19.3626 77.7214 19.5083C77.9698 19.654 78.2537 19.728 78.5416 19.7219C78.9397 19.7262 79.3297 19.6098 79.6603 19.388V19.3914Z" fill="white"/>
<path d="M86.528 21.1187C86.0112 20.5072 85.7515 19.7193 85.8034 18.9204V6.2806L88.6627 5.95264V18.8407C88.6627 19.3204 88.8559 19.5619 89.2466 19.5619C89.4413 19.5667 89.6343 19.5246 89.8093 19.439L90.3932 21.5221C89.8146 21.7696 89.1903 21.8923 88.561 21.8823C88.1874 21.9055 87.8132 21.8495 87.4628 21.7179C87.1124 21.5863 86.7938 21.3821 86.528 21.1187Z" fill="white"/>
<path d="M96.5565 21.5906C96.2111 22.8159 95.5069 23.9097 94.5345 24.7312C93.4488 25.5269 92.1445 25.9689 90.7989 25.9973L90.4963 23.9431C91.2926 23.8848 92.0627 23.6338 92.7404 23.2118C93.2782 22.7814 93.686 22.2102 93.9184 21.5618H92.9353L89.6133 10.9016H92.6523L94.7836 19.7152L97.0421 10.9016H99.9997L96.5565 21.5906Z" fill="white"/>
</svg>
