<svg width="96" height="59" viewBox="0 0 96 59" fill="none" xmlns="http://www.w3.org/2000/svg">
<rect width="96" height="58.3636" rx="8" fill="#E60000"/>
<path d="M41.2648 12.2438C45.7519 10.4648 50.9785 10.5878 55.346 12.654C54.1014 12.466 52.8356 12.6078 51.6038 12.8149C48.2581 13.4435 45.0787 15.0094 42.5935 17.3357C40.2106 19.6656 38.5408 22.7571 38.0691 26.0645C37.7572 28.4081 38.0463 30.8662 39.1035 32.9993C40.1929 35.2373 42.1105 37.0729 44.4218 38.0202C46.6489 38.9578 49.2323 38.9474 51.4881 38.1106C54.8729 36.875 57.3049 33.5386 57.583 29.9739C57.758 27.6377 57.1867 25.1524 55.6089 23.3606C54.1026 21.6066 51.8996 20.6405 49.6949 20.0906C49.5768 17.9278 50.6011 15.7911 52.2256 14.3845C53.1277 13.5753 54.2473 13.0595 55.405 12.7294L55.493 12.6993C58.8071 14.2802 61.6232 16.8875 63.4174 20.0884C64.9547 22.8136 65.7565 25.9539 65.677 29.082C65.6619 33.1271 64.1419 37.132 61.5364 40.225C59.0726 43.1746 55.6265 45.2963 51.8707 46.146C48.1049 47.0102 44.0533 46.6374 40.5289 45.0454C37.0803 43.5132 34.1587 40.8498 32.3 37.5735C30.7539 34.8509 29.936 31.7117 30.0039 28.58C30.0113 24.6778 31.4042 20.8058 33.8363 17.7544C35.779 15.318 38.3561 13.3806 41.2648 12.2438Z" fill="#F3EBFF"/>
<path d="M51.6039 12.8149C52.8357 12.6078 54.1016 12.466 55.3461 12.6541L55.5248 12.6842L55.4052 12.7293C54.2475 13.0596 53.1279 13.5753 52.2258 14.3846C50.6013 15.7911 49.5769 17.9278 49.6951 20.0907C51.8996 20.6405 54.1027 21.6065 55.609 23.3606C57.1869 25.1524 57.7582 27.6377 57.5832 29.9739C57.3051 33.5385 54.8731 36.8749 51.4883 38.1106C49.2325 38.9474 46.6491 38.9576 44.4219 38.0203C42.1106 37.0729 40.1931 35.2374 39.1037 32.9993C38.0465 30.8661 37.7573 28.408 38.0694 26.0645C38.5409 22.757 40.2108 19.6656 42.5938 17.3357C45.0789 15.0093 48.2583 13.4435 51.6039 12.8149Z" fill="#E60000"/>
</svg>
