<svg width="96" height="59" viewBox="0 0 96 59" fill="none" xmlns="http://www.w3.org/2000/svg">
<rect width="96" height="58.3636" rx="8" fill="#FF6600"/>
<path d="M51.6044 12.8149C52.8362 12.6078 54.1021 12.466 55.3466 12.6541L55.5253 12.6842L55.4057 12.7293C54.248 13.0596 53.1284 13.5753 52.2263 14.3846C50.6018 15.7911 49.5774 17.9278 49.6956 20.0907C51.9001 20.6405 54.1032 21.6065 55.6095 23.3606C57.1874 25.1524 57.7586 27.6377 57.5837 29.9739C57.3055 33.5385 54.8736 36.8749 51.4888 38.1106C49.233 38.9474 46.6495 38.9576 44.4224 38.0203C42.1111 37.0729 40.1936 35.2374 39.1042 32.9993C38.047 30.8661 37.7578 28.408 38.0699 26.0645C38.5414 22.757 40.2112 19.6656 42.5942 17.3357C45.0793 15.0093 48.2588 13.4435 51.6044 12.8149V12.8149Z" fill="#FF6600"/>
<path d="M20.7791 35.544C18.2666 35.544 16 33.9511 16 30.4696C16 26.9883 18.2666 25.3952 20.7791 25.3952C23.2917 25.3952 25.555 26.9883 25.555 30.4696C25.5548 33.9511 23.2915 35.544 20.7791 35.544ZM20.7791 27.535C18.8796 27.535 18.5327 29.2387 18.5327 30.4696C18.5327 31.7005 18.8796 33.4076 20.7791 33.4076C22.6787 33.4076 23.0257 31.7007 23.0257 30.4696C23.0257 29.2385 22.6787 27.535 20.7791 27.535ZM27.2978 25.6489H29.7161V26.7791C30.1775 26.1687 31.3125 25.4509 32.3769 25.4509C32.478 25.4509 32.6025 25.4509 32.707 25.4643V27.8422H32.5823C31.4776 27.8422 30.2685 28.0131 29.8777 28.8684V35.2641H27.2978V25.6489ZM39.4597 34.4272C38.4761 35.0712 37.4119 35.3831 36.2668 35.3831C34.4649 35.3831 33.3971 34.1892 33.3971 32.5859C33.3971 30.4329 35.3842 29.2958 39.4799 28.8364V28.2998C39.4799 27.6021 38.9478 27.1931 37.9642 27.1931C36.9807 27.1931 36.1825 27.5822 35.6064 28.2998L33.8921 27.3271C34.7914 26.0727 36.1621 25.4455 38.0045 25.4455C40.5239 25.4455 41.9384 26.5323 41.9384 28.2998C41.9384 28.2998 41.935 35.2524 41.9384 35.2692H39.6851L39.4597 34.4272ZM35.8996 32.4015C35.8996 33.0487 36.3072 33.6524 37.0447 33.6524C37.8429 33.6524 38.621 33.3239 39.399 32.6396V30.3622C37.0245 30.6542 35.8996 31.2644 35.8996 32.4015ZM43.9469 25.9051L46.052 25.6167L46.2843 26.7568C47.4699 25.8915 48.413 25.4321 49.5985 25.4321C51.5856 25.4321 52.6129 26.4818 52.6129 28.5614V35.2556H50.07V29.0006C50.07 27.8232 49.7635 27.2936 48.8438 27.2936C48.086 27.2936 47.3281 27.6355 46.4627 28.36V35.2556H43.9469V25.9051ZM58.8325 33.1975C60.7591 33.1843 60.9241 31.2289 60.9241 29.9577C60.9241 28.4484 60.1864 27.231 58.8157 27.231C57.9029 27.231 56.8823 27.8949 56.8823 30.0617C56.8825 31.2459 56.9668 33.2143 58.8325 33.1975ZM63.366 25.6145V34.7202C63.366 36.3234 63.2381 38.9763 58.6408 38.9998C56.7412 39.0133 54.9797 38.2554 54.6294 36.6051L57.1355 36.2026C57.2396 36.6756 57.5328 37.1451 58.9543 37.1451C60.2712 37.1451 60.9043 36.5179 60.9043 35.0153V33.8952L60.8706 33.8616C60.4663 34.5826 59.8533 35.2637 58.3781 35.2637C56.125 35.2637 54.3534 33.7075 54.3534 30.4574C54.3534 27.241 56.1823 25.44 58.2332 25.4366C60.163 25.4333 60.8739 26.3086 61.0425 26.768L61.0087 26.7647L61.2209 25.6143L63.366 25.6145ZM69.4426 35.4398C66.5969 35.4398 64.8993 33.6153 64.8993 30.4524C64.8993 27.2529 66.6169 25.4317 69.4022 25.4317C72.1876 25.4317 73.8446 27.1992 73.8446 30.3249C73.8446 30.4927 73.8244 30.657 73.8244 30.8214H67.3947C67.4115 32.6459 68.1726 33.5647 69.668 33.5647C70.628 33.5647 71.2646 33.1792 71.8609 32.334L73.7199 33.3602C72.9017 34.7253 71.4265 35.4398 69.4426 35.4398ZM71.349 29.1815C71.349 27.8969 70.608 27.139 69.4022 27.139C68.2537 27.139 67.5362 27.8801 67.4353 29.1815H71.349ZM78.1953 22.0002L77.2589 24.4117L76.3059 22.0002H75.4909V25.1796H76.0195V22.5267H76.0329L77.0803 25.1796H77.4171L78.458 22.5267H78.4746V25.1796H79V22.0002H78.1953ZM72.3183 22.0002V22.4229H73.3153V25.1798H73.8438V22.4227H74.8444V22L72.3183 22.0002Z" fill="white"/>
</svg>
